<svg xmlns="http://www.w3.org/2000/svg" viewBox="174.771 3556.564 377.776 403.776">
  <defs>
    <style>
      .cls-1 {
        fill: rgba(65,82,188,0.6);
      }

      .cls-2 {
        fill: #f9f6f6;
        font-size: 50px;
        font-family: FjallaOne-Regular, Fjalla One;
      }
    </style>
  </defs>
  <g id="Groupe_18" data-name="Groupe 18" transform="translate(-7 3476)">
    <g id="Groupe_4" data-name="Groupe 4" transform="translate(1156.33 1250.591) rotate(-130)">
      <path id="Tracé_4" data-name="Tracé 4" class="cls-1" d="M1282.351,390.842c-91.361,113.625-149.708,81.38-149.708,81.38s-174.276,74.47-119-66.793,168.9-128.212,168.9-128.212l85.986,14.587S1373.712,277.217,1282.351,390.842Z" transform="translate(91.153 -352.938)"/>
      <path id="Tracé_3" data-name="Tracé 3" class="cls-1" d="M1282.351,390.842c-91.361,113.625-149.708,81.38-149.708,81.38s-34.978,14.946-68.929,18.78c-41.15,4.647-80.583-7.6-50.07-85.573,55.277-141.264,168.9-128.212,168.9-128.212l85.986,14.587S1373.712,277.217,1282.351,390.842Z" transform="translate(79.695 -374.9)"/>
    </g>
    <text id="Login" class="cls-2" transform="translate(326 324)"><tspan x="0" y="0">Login</tspan></text>
  </g>
</svg>
