<svg xmlns="http://www.w3.org/2000/svg" viewBox="483.812 10645.236 951.433 645.419">
  <defs>
    <style>
      .cls-1 {
        fill: #e6f0f5;
      }

      .cls-2 {
        fill: #f5f7fa;
      }

      .cls-3 {
        fill: #b1afaf;
      }

      .cls-4 {
        fill: #707070;
      }

      .cls-5 {
        fill: #4152bc;
      }

      .cls-6 {
        fill: #f05228;
      }

      .cls-7 {
        fill: #b14225;
      }

      .cls-8 {
        fill: #34597e;
      }

      .cls-9 {
        fill: #254463;
      }

      .cls-10 {
        fill: #61b8d0;
      }

      .cls-11 {
        fill: #49889a;
      }

      .cls-12 {
        fill: #8bc5d5;
      }

      .cls-13 {
        fill: #122231;
      }
    </style>
  </defs>
  <g id="Groupe_39" data-name="Groupe 39" transform="translate(0 10403)">
    <path id="Tracé_2" data-name="Tracé 2" class="cls-1" d="M1114.839,580.171C1389.178,238.977,1564.387,335.8,1564.387,335.8s523.319-223.621,357.332,200.567-507.182,385-507.182,385l-258.2-43.8S840.5,921.366,1114.839,580.171Z" transform="translate(-519 -34.664)"/>
    <g id="Groupe_38" data-name="Groupe 38">
      <path id="lumière_écran" data-name="lumière écran" class="cls-2" d="M866.109,10837l225.941,122.87-37.53,146.349L510.9,11192.362V10837Z" transform="translate(0 -10530)"/>
      <g id="ordi">
        <path id="Tracé_22" data-name="Tracé 22" class="cls-3" d="M1062.989,11132.765h44.663l-20.009-109.118-7.213,21.429,14.717,77.546S1066.92,11126.115,1062.989,11132.765Z" transform="translate(0 -10530)"/>
        <path id="Tracé_23" data-name="Tracé 23" class="cls-4" d="M1088.685,11024.533l-3.4,42.274-5.028-21.19Z" transform="translate(-0.943 -10530)"/>
        <path id="Tracé_24" data-name="Tracé 24" class="cls-4" d="M1092.123,10960.05l-38.353,144.63s-.231,5.083,3.466,1.849,29.111-66.771,27.263-68.85,8.78-20.562,11.09-77.629C1093.972,10956.814,1092.123,10960.05,1092.123,10960.05Z" transform="translate(0 -10530)"/>
      </g>
      <g id="chaise" transform="translate(1)">
        <path id="peau_bras1" data-name="peau bras1" class="cls-5" d="M858,11176.139s6.25,100.873,14,106.807,25.249-106.807,25.249-106.807Z" transform="translate(29.752 -10537.975)"/>
        <path id="Tracé_19" data-name="Tracé 19" class="cls-3" d="M746.566,11369.725H887.171l-56.721-17.449v-101.06H814.472v101.06S743.77,11366,746.566,11369.725Z" transform="translate(0 -10530)"/>
        <path id="Tracé_20" data-name="Tracé 20" class="cls-4" d="M914.667,11186.965l15.978-15.824v-22.906H914.667Z" transform="translate(-100.195 -10429)"/>
        <path id="Tracé_19-2" data-name="Tracé 19" class="cls-6" d="M785.065,11100.886s-12.764-9.255-25.83,0-18.813,32.665-18.813,52.265,4.9,60.977,7.078,68.054,8.711,29.942,37.566,30.487,106.163.544,106.163,0,33.755-16.876,0-34.843S785.065,11100.886,785.065,11100.886Z" transform="translate(0 -10530)"/>
        <path id="Tracé_20-2" data-name="Tracé 20" class="cls-7" d="M768.1,11218.2s-39.687-32.54-9.033-116.423c15.1-10.474,26.063,0,26.063,0l-13.243,78.643Z" transform="translate(0 -10530.85)"/>
      </g>
      <g id="jambes" transform="translate(-2 -2)">
        <path id="Tracé_22-2" data-name="Tracé 22" class="cls-8" d="M780.21,11226.327c22.024,1.1,46.8,0,84.793,0h62.769c14.411,0-98.966,142.466-82.04,143.158s146.461-148.664,146.461-148.664,13.442-32.055-15.995-44.147c-.722-.3-213.134.342-214.159,0C755.433,11199.348,760.388,11223.023,780.21,11226.327Z" transform="translate(32 -10530)"/>
        <path id="Tracé_24-2" data-name="Tracé 24" class="cls-9" d="M780.21,11226.327c22.024,1.1,46.8,0,84.793,0s81.568-5.506,95.979-5.506-89.575,115.527-95.979,144.837c15.763-11.576,127.19-144.837,127.19-144.837s13.442-32.055-15.995-44.147c-.722-.3-213.134.342-214.159,0C755.433,11199.348,760.388,11223.023,780.21,11226.327Z" transform="translate(11 -10530)"/>
        <path id="Tracé_21" data-name="Tracé 21" class="cls-8" d="M780.21,11226.327c22.024,1.1,46.8,0,84.793,0h62.769c14.411,0-98.966,142.466-82.04,143.158s146.461-148.664,146.461-148.664,13.442-32.055-15.995-44.147c-.722-.3-210.891.049-211.915-.293C757.676,11199.055,760.388,11223.023,780.21,11226.327Z" transform="translate(0 -10530)"/>
        <path id="Tracé_23-2" data-name="Tracé 23" class="cls-9" d="M1037.257,11195.929c12.837,11.163,32.012,15.526,32.012,15.526l135.715,2.938s12.925-8.812,16.45-8.225-16.45,12.338-16.45,12.338l16.45-4.113s-76.462,113.525-101.052,148.053c-.988-3.837,2.692-9.944,2.692-9.944l81.909-130.471s-111.627,1.176-151.578,0C1048.706,11222.03,1036.17,11210.616,1037.257,11195.929Z" transform="translate(-276 -10525)"/>
        <path id="Tracé_24-3" data-name="Tracé 24" class="cls-9" d="M850.887,11176.219l9.607,38.429s-2.016-37.124-3.084-39.021A33.553,33.553,0,0,0,850.887,11176.219Z" transform="translate(2 -10528)"/>
      </g>
      <g id="tete">
        <path id="Tracé_28" data-name="Tracé 28" class="cls-5" d="M962.924,11120.174s-12.842,8.061,1.933,12.429,56.68,1.933,56.68,1.933l-2.957-23.284s-52.277-30.959-76.213-45.461c-17.529-17.78-21.7-19.073-21.7-19.073l-2.241,53.816,12.566,10.718,1.675-3.033.054.252c7.471,3.833,15.863,6.885,15.822,6.917C959.752,11118.174,962.924,11120.174,962.924,11120.174Z" transform="translate(0 -10530)"/>
        <path id="Tracé_29" data-name="Tracé 29" class="cls-9" d="M1020.7,11097.13c11.964,11.25,7.143,30.178,7.143,30.178,6.25,0,4.821,6.786,4.821,6.786h-20.714s-3.036-16.429-9.107-18.75-46.785-3.035-18.571-6.607-14.285-25.535-14.289-25.714C1011.054,11089.63,1005.875,11086.772,1020.7,11097.13Z" transform="translate(0 -10530)"/>
      </g>
      <g id="t-shirt">
        <path id="peau_bras1-2" data-name="peau bras1" class="cls-5" d="M858,11176.139s6.25,100.873,14,106.807,25.249-106.807,25.249-106.807Z" transform="translate(-0.248 -10533.975)"/>
        <path id="Tracé_21-2" data-name="Tracé 21" class="cls-10" d="M763.932,11175.9s-5.145-.567,0-17.039,32.016-118.705,103.479-128.929c36.2-3.393,48.143,7.937,62.3,20.605-6.609.142-20.364,51.874.751,65.04.081.2-.353,2.424-4,3.229,0,.4,1.81,55.739,1.81,55.739s-5.406,1.354-30.526,1.354c-3.478,8.684-.745,5.7-10.433,55.136-7.984,0-15.476,1.147-24.1.994-2.306,1.605-3.732-56.093-6.459-56.13C816.668,11175.356,763.932,11175.9,763.932,11175.9Z" transform="translate(0 -10530)"/>
        <path id="Tracé_21-3" data-name="Tracé 21" class="cls-11" d="M862.233,501.006c-19.991,8.724-91.023,90.6-98.656,144.756-14.175-10.9,32.049-96.962,37.865-100.232C807.258,537.533,826.25,509.365,862.233,501.006Z"/>
        <path id="Tracé_22-3" data-name="Tracé 22" class="cls-11" d="M892.309,516.089c2.544,2.181-21.081-1.09-26.9,26.17.727-.728-8,103.951-8,103.951h-6.542s-9.814-26.9-9.087-45.07-4.362-36.709,9.087-58.881S889.764,513.908,892.309,516.089Z"/>
        <path id="Tracé_23-3" data-name="Tracé 23" class="cls-12" d="M892.693,11046.1s11.043-1.5,13.8,11.8c.5,14.3-6.525,112.937-8.533,117.453s9.035-100.389,6.274-111.682A33.029,33.029,0,0,0,892.693,11046.1Z" transform="translate(0 -10530)"/>
        <path id="Tracé_27" data-name="Tracé 27" class="cls-11" d="M942.244,11056.721s3.68-4.43-3.8-6.553c-3.373-.85-20.742-.859-22.941,28.447-.991,13.2,1.021,22.76,6.591,32.7,2.4,4.574,7.67,6.506,9.776,7.33.206,0,2.261.549,3.906-2.535,1.294-2.831-3.777-4.508-8.24-6.689-5.429-2.654-4.2-43.932,10.908-51.719A9.752,9.752,0,0,0,942.244,11056.721Z" transform="translate(-5.346 -10530)"/>
        <path id="Tracé_26" data-name="Tracé 26" class="cls-13" d="M933.681,11058.831l.329.28,6.758,5.768-2.016-8.8-5.8,1.1Z" transform="translate(0 -10530)"/>
        <path id="Tracé_25" data-name="Tracé 25" class="cls-9" d="M942.173,11065.734s1.177-13.561-5.685-15.578c-3.094-.808-19.027-.816-21.045,27.032-.909,12.543-1.7,22.48,3.406,31.924,2.2,4.346,9.751,6.268,11.683,7.051,3.767-4.439,2.094-8.021,2.094-8.021s-1.164.841-6.145-1.682-3.85-41.747,10.007-49.146c2.169-.16,2.44,4.377,3.485,6.955A2.906,2.906,0,0,0,942.173,11065.734Z" transform="translate(0 -10530)"/>
      </g>
      <g id="Table" transform="translate(8)">
        <path id="Tracé_19-3" data-name="Tracé 19" class="cls-3" d="M914.667,11369.725h10.277v-218.655H914.667Z" transform="translate(0 -10530)"/>
        <path id="Tracé_20-3" data-name="Tracé 20" class="cls-4" d="M914.667,11181.192l10.277-13.467v-19.491H914.667Z" transform="translate(0 -10530)"/>
        <path id="Tracé_19-4" data-name="Tracé 19" class="cls-3" d="M914.667,11369.725h10.277v-218.655H914.667Z" transform="translate(215 -10530)"/>
        <path id="Tracé_20-4" data-name="Tracé 20" class="cls-4" d="M914.667,11181.192l10.277-13.467v-19.491H914.667Z" transform="translate(215 -10530)"/>
        <path id="Tracé_21-4" data-name="Tracé 21" class="cls-6" d="M909.646,11132.765h238.439s20.164,8.57,0,23.188c-44.109-.5-238.439,0-238.439,0S891.246,11144.611,909.646,11132.765Z" transform="translate(0 -10530)"/>
      </g>
    </g>
  </g>
</svg>
